<?xml version="1.0" encoding="UTF-8" standalone="no"?>
<!-- Created with Inkscape (http://www.inkscape.org/) -->

<svg
   xmlns:dc="http://purl.org/dc/elements/1.1/"
   xmlns:cc="http://creativecommons.org/ns#"
   xmlns:rdf="http://www.w3.org/1999/02/22-rdf-syntax-ns#"
   xmlns:svg="http://www.w3.org/2000/svg"
   xmlns="http://www.w3.org/2000/svg"
   xmlns:sodipodi="http://sodipodi.sourceforge.net/DTD/sodipodi-0.dtd"
   xmlns:inkscape="http://www.inkscape.org/namespaces/inkscape"
   width="210mm"
   height="297mm"
   viewBox="0 0 744.09448819 1052.3622047"
   id="svg2"
   version="1.1"
   inkscape:version="0.91 r13725"
   sodipodi:docname="medusa.svg"
   inkscape:export-filename="C:\Users\eugene\Documents\git\ovm\jellyfish.png"
   inkscape:export-xdpi="300.11929"
   inkscape:export-ydpi="300.11929">
  <defs
     id="defs4" />
  <sodipodi:namedview
     id="base"
     pagecolor="#ffffff"
     bordercolor="#666666"
     borderopacity="1.0"
     inkscape:pageopacity="0.0"
     inkscape:pageshadow="2"
     inkscape:zoom="4.6014022"
     inkscape:cx="144.50491"
     inkscape:cy="916.65695"
     inkscape:document-units="px"
     inkscape:current-layer="layer1"
     showgrid="true"
     showguides="false"
     inkscape:object-paths="true"
     inkscape:snap-others="false"
     inkscape:snap-nodes="false"
     inkscape:window-width="1440"
     inkscape:window-height="838"
     inkscape:window-x="-8"
     inkscape:window-y="-8"
     inkscape:window-maximized="1">
    <inkscape:grid
       type="xygrid"
       id="grid4288" />
  </sodipodi:namedview>
  <metadata
     id="metadata7">
    <rdf:RDF>
      <cc:Work
         rdf:about="">
        <dc:format>image/svg+xml</dc:format>
        <dc:type
           rdf:resource="http://purl.org/dc/dcmitype/StillImage" />
        <dc:title />
      </cc:Work>
    </rdf:RDF>
  </metadata>
  <g
     inkscape:label="Layer 1"
     inkscape:groupmode="layer"
     id="layer1">
    <path
       style="opacity:1;fill:#8080ff;fill-opacity:1;stroke:none;stroke-width:0.5;stroke-linecap:round;stroke-linejoin:round;stroke-miterlimit:4;stroke-dasharray:1, 0.5, 0.25, 0.5;stroke-dashoffset:0;stroke-opacity:1"
       id="path4294"
       d="m 52.106526,164.308 c 0.279955,-0.51876 0.525232,-1.05772 0.839865,-1.55629 0.754145,-1.19502 5.687743,-8.38702 5.918775,-8.72251 0.600731,-0.87234 8.191606,-11.83027 8.760862,-12.597 1.612824,-2.17231 3.346464,-4.25259 5.019695,-6.37888 4.74413,-5.06201 6.014486,-6.95519 11.782606,-10.94257 2.223412,-1.53699 4.590994,-2.86731 6.997344,-4.09954 7.685501,-3.93554 12.670397,-6.67874 20.670417,-8.32547 2.7243,-0.56078 5.51491,-0.73041 8.27236,-1.09562 2.83285,-0.0834 5.66526,-0.3168 8.49855,-0.2501 2.81634,0.0663 5.62934,0.31316 8.42635,0.6485 4.87731,0.58475 10.68655,1.70934 15.36067,3.30799 6.28061,2.14811 8.0626,3.53304 13.81627,6.82135 2.07241,1.51445 4.2466,2.8991 6.21724,4.54335 2.97608,2.48315 7.60495,7.36423 10.28709,10.27164 3.22184,3.49243 6.29677,7.10354 9.27404,10.80343 l 1.70853,2.2651 -7.68507,4.4803 0,0 -1.33827,-2.44417 c -0.62454,-1.03102 -1.22271,-2.07842 -1.87364,-3.09305 -4.42232,-6.8933 -9.58735,-13.50288 -15.88977,-18.79273 -1.94071,-1.6289 -4.07785,-3.0092 -6.11677,-4.51379 -5.9644,-3.28837 -7.38839,-4.41001 -13.8131,-6.63376 -7.44128,-2.57561 -15.4475,-3.91688 -23.31447,-4.05527 -2.9916,-0.48482 -4.62058,-0.54738 -7.44745,-0.44043 -11.19468,1.26346 -7.81515,1.4082 -16.986312,4.23765 -1.681378,0.51873 -5.804378,3.4135 -6.467744,3.70265 -4.584548,2.00069 -5.362675,1.95673 -9.032439,5.30934 -1.970045,1.79979 -3.514912,2.97359 -5.353564,4.90696 -1.625967,2.09183 -3.317693,3.72836 -4.877904,5.8695 -1.490778,2.04587 -2.969705,3.02188 -4.514042,6.11686 -2.333651,4.67683 -5.538005,10.34026 -7.620031,15.14622 -0.162323,0.3747 -0.273891,0.76932 -0.410837,1.15398 l -9.109251,4.35602 z"
       inkscape:connector-curvature="0"
       sodipodi:nodetypes="cssscssscssscsscccccsscsccscscsssccc"
       inkscape:export-xdpi="148.67"
       inkscape:export-ydpi="148.67" />
    <path
       style="opacity:1;fill:#8080ff;fill-opacity:1;stroke:none;stroke-width:0.5;stroke-linecap:round;stroke-linejoin:round;stroke-miterlimit:4;stroke-dasharray:1, 0.5, 0.25, 0.5;stroke-dashoffset:0;stroke-opacity:1"
       id="path4296"
       d="m 86.723885,149.7056 c -0.02178,0.19177 -0.01748,0.38834 -0.06533,0.57531 -0.31225,1.22031 -1.287421,4.11978 -1.553242,5.07171 -1.183668,4.23881 -1.951455,8.52819 -2.673473,12.86349 -0.776478,5.2509 -1.22848,10.54571 -1.41798,15.84934 -0.03999,1.11932 -0.101134,2.23927 -0.08092,3.35912 0.02164,1.19835 0.13758,2.39314 0.206369,3.58971 0.936364,5.73406 2.949333,11.24996 5.302325,16.54414 0.222737,0.50116 2.88652,6.10122 3.163896,6.68515 0.712769,1.74955 1.890804,4.41455 2.313467,6.30129 0.399859,1.78493 0.57764,4.54269 0.415976,6.38031 -0.223195,2.53703 -0.73629,3.84744 -1.445722,6.26433 0,0 -3.254659,1.54069 -3.254659,1.54069 l 0,0 c 0.762836,-2.49424 1.219968,-3.54708 1.477109,-6.16711 0.194784,-1.98467 0.06834,-4.343 -0.345019,-6.28951 -0.459527,-2.16394 -1.405953,-4.2622 -2.21972,-6.29895 -0.365361,-0.79211 -2.787472,-6.02911 -3.091072,-6.74669 -1.046171,-2.47272 -2.150026,-5.54709 -3.017152,-8.06467 -0.510003,-1.48072 -1.055469,-2.95148 -1.482889,-4.45811 -0.380391,-1.34086 -0.625216,-2.71653 -0.937825,-4.07479 -0.08754,-1.19905 -0.233625,-2.39526 -0.262617,-3.59715 -0.04573,-1.89565 0.194332,-4.99843 0.339045,-6.87046 0.322553,-4.17262 0.676068,-8.34939 1.346474,-12.48335 0.689228,-4.28155 1.432854,-8.54813 2.402876,-12.77719 0.226975,-0.98955 0.520627,-1.96292 0.752258,-2.95139 0.387793,-1.6549 0.3468,-1.29672 0.385677,-2.3385 0,0 3.742142,-1.90672 3.742142,-1.90672 z"
       inkscape:connector-curvature="0"
       inkscape:export-xdpi="148.67"
       inkscape:export-ydpi="148.67" />
    <path
       style="opacity:1;fill:#8080ff;fill-opacity:1;stroke:none;stroke-width:0.5;stroke-linecap:round;stroke-linejoin:round;stroke-miterlimit:4;stroke-dasharray:1, 0.5, 0.25, 0.5;stroke-dashoffset:0;stroke-opacity:1"
       id="path4314"
       d="m 169.07898,144.31414 c -0.0129,0.30522 -0.0468,0.61028 -0.0388,0.91566 0.0342,1.30276 0.24458,2.67805 0.37883,3.95684 0.1177,1.12114 0.22173,2.24366 0.33306,3.36544 0.12079,1.21717 0.29222,2.43033 0.36328,3.65141 0.0796,1.36732 0.0589,2.73863 0.0883,4.10795 -0.0758,8.92084 -1.87664,17.67653 -3.29062,26.44734 -0.3812,3.24611 -0.6015,3.78605 -0.33613,7.11899 0.18879,2.37117 0.82886,5.32971 1.36275,7.61735 0.78859,3.37903 1.36358,5.31592 2.29158,8.65935 1.61288,6.17131 3.55054,12.25235 5.13428,18.431 0,0 -3.40773,1.83324 -3.40773,1.83324 l 0,0 c -1.2481,-6.29432 -2.98146,-12.47911 -4.65661,-18.66976 -0.45609,-1.63667 -1.95572,-6.98038 -2.37463,-8.63417 -0.93503,-3.69135 -1.77444,-7.5097 -1.5886,-11.34986 0.0568,-1.17337 0.3178,-2.32789 0.4767,-3.49183 1.5262,-8.73915 3.43454,-17.47915 3.34776,-26.40075 -0.0506,-1.34828 -0.0521,-2.6993 -0.15191,-4.04483 -0.13209,-1.78134 -0.60811,-5.0797 -0.90893,-6.88777 -0.18931,-1.13781 -0.54138,-2.66167 -0.68027,-3.86602 -0.0335,-0.29041 -0.0258,-0.5841 -0.0388,-0.87614 0,0 3.69645,-1.88344 3.69645,-1.88344 z"
       inkscape:connector-curvature="0"
       inkscape:export-xdpi="148.67"
       inkscape:export-ydpi="148.67" />
    <path
       style="opacity:1;fill:#8080ff;fill-opacity:1;stroke:none;stroke-width:0.5;stroke-linecap:round;stroke-linejoin:round;stroke-miterlimit:4;stroke-dasharray:1, 0.5, 0.25, 0.5;stroke-dashoffset:0;stroke-opacity:1"
       id="path4316"
       d="m 149.8596,142.81802 c 0.16987,10.101 0.87853,20.18554 0.94648,30.28882 0.0538,7.99621 -0.10462,9.56941 -0.42735,17.59773 -0.66193,11.19554 -1.22045,22.33359 -0.28584,33.53278 0.45583,5.46201 0.92838,7.93252 1.75018,13.23382 1.57943,9.69321 4.43628,19.10305 7.02127,28.5585 0.99877,3.71643 0.55837,1.95759 1.34095,5.27154 0,0 -3.31255,1.77386 -3.31255,1.77386 l 0,0 c -0.60425,-3.3897 -0.25247,-1.59033 -1.08041,-5.39316 -0.92823,-3.92543 -0.91995,-3.98269 -1.99172,-8.09772 -1.78487,-6.85299 -3.71158,-13.68173 -4.59927,-20.72977 -0.27742,-2.10086 -0.59988,-4.19626 -0.83227,-6.30258 -0.50714,-4.59658 -0.94342,-10.43035 -1.05949,-15.01099 -0.19052,-7.51827 0.0697,-9.13397 0.44081,-16.71493 0.14713,-3.00573 0.28147,-6.01208 0.4222,-9.01812 0.11056,-2.95295 0.26148,-5.90467 0.33168,-8.85887 0.15825,-6.65989 0.12508,-10.81656 -0.16404,-17.47679 -0.20357,-4.68944 -0.62747,-11.13823 -1.19057,-15.86366 -0.19646,-1.64864 -0.52131,-3.27944 -0.78196,-4.91915 0,0 3.4719,-1.87131 3.4719,-1.87131 z"
       inkscape:connector-curvature="0"
       inkscape:export-xdpi="148.67"
       inkscape:export-ydpi="148.67" />
    <path
       style="opacity:1;fill:#8080ff;fill-opacity:1;stroke:none;stroke-width:0.5;stroke-linecap:round;stroke-linejoin:round;stroke-miterlimit:4;stroke-dasharray:1, 0.5, 0.25, 0.5;stroke-dashoffset:0;stroke-opacity:1"
       id="path4318"
       d="m 104.12012,146.30479 c -1.28005,3.42541 -2.01412,7.00498 -2.57019,10.58328 -0.8983,5.78052 -1.24486,9.43231 -1.12877,15.40574 0.0619,3.18669 0.38817,6.36438 0.58225,9.54656 0.9166,9.88545 2.45789,19.70519 4.11731,29.50354 0.63378,3.74228 2.2438,12.23985 2.54873,16.21742 0.18502,2.41347 0.0562,4.83866 0.0843,7.25798 -0.26653,2.37742 -0.46038,4.76269 -0.79958,7.13226 -0.38079,2.6601 -1.98903,10.94837 -2.43798,13.62351 -0.74742,4.45364 -1.3142,8.59563 -1.78149,13.08196 -0.2026,1.94502 -0.33678,3.89558 -0.50517,5.84336 -0.0937,1.68768 -0.18745,3.37534 -0.28117,5.063 0,0 -2.78882,1.28688 -2.78882,1.28688 l 0,0 c 0.14423,-1.71353 0.28847,-3.42705 0.43271,-5.14058 0.33032,-3.04405 1.01829,-9.57319 1.42303,-12.48269 0.30435,-2.18781 0.66765,-4.36857 1.04331,-6.54697 0.20248,-1.17416 2.33604,-12.50431 2.5048,-13.63647 0.35241,-2.36418 0.55528,-4.74521 0.83291,-7.1178 0.007,-2.42594 0.15587,-4.85509 0.0197,-7.27778 -0.24561,-4.37062 -1.53406,-12.20797 -2.17724,-16.38945 -1.51045,-9.81996 -3.07305,-19.63568 -4.14568,-29.50737 -0.27427,-3.15052 -0.669406,-6.2941 -0.822822,-9.45156 -0.308944,-6.35834 -0.05842,-9.06211 0.554262,-15.1782 0.34148,-3.40876 0.7087,-6.85247 1.60643,-10.18457 0,0 3.68918,-1.63205 3.68918,-1.63205 z"
       inkscape:connector-curvature="0"
       inkscape:export-xdpi="148.67"
       inkscape:export-ydpi="148.67" />
    <path
       style="opacity:1;fill:#8080ff;fill-opacity:1;stroke:none;stroke-width:0.5;stroke-linecap:round;stroke-linejoin:round;stroke-miterlimit:4;stroke-dasharray:1, 0.5, 0.25, 0.5;stroke-dashoffset:0;stroke-opacity:1"
       id="path4320"
       d="m 127.72466,142.76722 c -0.0411,0.43976 -0.0706,0.88075 -0.12329,1.31927 -0.14417,1.20018 -0.33802,2.39433 -0.46719,3.59622 -1.2857,11.96272 -1.67693,23.99462 -2.08966,36.01106 -0.076,3.57018 -0.17979,7.13987 -0.22785,10.71053 -0.0484,3.59599 -0.0965,7.19262 -0.0615,10.78877 0.0776,7.97444 0.41795,14.8759 0.81829,22.86225 0.6405,12.77736 0.57357,10.97334 1.437,23.3183 0.6688,9.03631 1.37345,18.06921 2.02234,27.10693 0.41007,5.71145 0.84177,11.41241 1.10967,17.13228 0.21214,5.05643 0.15471,10.12311 -0.19862,15.17147 -0.3135,2.69188 -0.85371,5.39213 -1.7906,7.9412 -0.24266,0.592 -0.56098,1.13963 -0.91454,1.6697 0,0 -3.80204,1.64008 -3.80204,1.64008 l 0,0 c 0.41182,-0.4974 0.75048,-1.0335 1.04531,-1.61034 1.06566,-2.50872 1.61382,-5.19625 1.9571,-7.89315 0.53468,-5.11904 0.72633,-10.26764 0.76583,-15.41284 -0.0626,-14.96494 -1.20589,-29.89675 -1.95003,-44.83709 -1.01433,-18.77031 -0.17892,-3.72331 -1.3353,-23.37302 -0.23021,-3.91181 -0.50454,-7.82145 -0.67682,-11.73624 -0.37378,-8.49357 -0.39861,-13.35942 -0.27767,-21.83015 0.0511,-3.57657 0.17276,-7.15179 0.25914,-10.72768 0.51258,-22.95136 -0.0146,0.863 0.45482,-20.94511 0.12755,-5.92525 0.32154,-11.85836 0.36503,-17.78552 0.003,-0.40748 -0.0258,-0.81456 -0.0387,-1.22184 0,0 3.71929,-1.89508 3.71929,-1.89508 z"
       inkscape:connector-curvature="0"
       inkscape:export-xdpi="148.67"
       inkscape:export-ydpi="148.67" />
    <path
       style="opacity:1;fill:#8080ff;fill-opacity:1;stroke:none;stroke-width:0.5;stroke-linecap:round;stroke-linejoin:round;stroke-miterlimit:4;stroke-dasharray:1, 0.5, 0.25, 0.5;stroke-dashoffset:0;stroke-opacity:1"
       id="path4332"
       d="m 61.538651,157.48879 c 1.851081,-1.11136 3.937675,-1.81968 5.947865,-2.60997 2.926833,-1.15067 3.529239,-1.45583 6.613165,-2.40419 1.304629,-0.4012 2.628649,-0.74217 3.942973,-1.11327 9.248467,-2.18265 18.467218,-4.47614 27.706536,-6.69385 3.94974,-0.95599 7.97518,-1.70609 12.03453,-2.08217 1.21592,-0.11264 4.05393,-0.2568 5.2928,-0.32461 6.43204,-0.16457 12.86478,-0.16226 19.29859,-0.17445 5.58105,0.15361 11.16835,0.27311 16.73777,0.66622 4.51226,0.47793 9.02088,0.98676 13.53617,1.43909 2.91986,0.16362 5.78084,0.76119 8.66764,1.16984 0.4743,0.16294 0.99558,0.14544 1.47447,0.28846 0.25468,0.076 0.48885,0.20505 0.73776,0.29696 0.90463,0.33405 1.84185,0.58798 2.77012,0.85228 2.18035,0.40067 4.20146,1.28467 6.3073,1.9184 0.3909,0.10068 0.78181,0.20136 1.17271,0.30204 0,0 -8.78426,5.74722 -8.78426,5.74722 l 0,0 c -0.37904,-0.11617 -0.75809,-0.23235 -1.13714,-0.34852 -2.11178,-0.63755 -4.2313,-1.25837 -6.35991,-1.84094 -1.68522,-0.41553 -3.34509,-0.90966 -5.03611,-1.30309 -2.67735,-0.62326 -5.3685,-1.20772 -8.11901,-1.45064 -4.46437,-0.57614 -8.93993,-1.04455 -13.42155,-1.4791 -5.43583,-0.52729 -10.89098,-0.76689 -16.3539,-0.84101 -6.49398,-0.13963 -12.99498,-0.13071 -19.47435,0.37078 -5.62929,0.26824 -11.22745,0.90862 -16.717208,2.16842 -4.169535,0.83272 -8.298163,1.77279 -12.432119,2.75518 -5.033912,1.19624 -10.081468,2.35758 -15.033241,3.84478 -3.757673,1.17883 -4.156664,1.23612 -7.704994,2.59872 -1.789218,0.68708 -4.589324,1.86648 -6.319574,2.6843 -0.846504,0.40011 -1.66159,0.85862 -2.500368,1.27336 -0.548495,0.27121 -1.10732,0.52284 -1.66098,0.78425 0,0 8.814315,-6.49449 8.814315,-6.49449 z"
       inkscape:connector-curvature="0"
       inkscape:export-xdpi="148.67"
       inkscape:export-ydpi="148.67" />
    <rect
       style="opacity:1;fill:#333333;fill-opacity:1;stroke:#000000;stroke-width:0.10383648;stroke-linecap:round;stroke-linejoin:round;stroke-miterlimit:4;stroke-dasharray:none;stroke-dashoffset:0;stroke-opacity:1"
       id="rect4174"
       width="54.405518"
       height="17.514042"
       x="76.163734"
       y="110.73363"
       transform="matrix(0.9955635,-0.09409206,0.11188313,0.99372137,0,0)"
       inkscape:export-xdpi="148.67"
       inkscape:export-ydpi="148.67" />
    <path
       style="opacity:1;fill:#333333;fill-opacity:1;stroke:none;stroke-width:0.10487539;stroke-linecap:round;stroke-linejoin:round;stroke-miterlimit:4;stroke-dasharray:none;stroke-dashoffset:0;stroke-opacity:1"
       id="path4176"
       sodipodi:type="arc"
       sodipodi:cx="103.3661"
       sodipodi:cy="128.39883"
       sodipodi:rx="27.200621"
       sodipodi:ry="7.2532101"
       sodipodi:start="3.3679444"
       sodipodi:end="3.2495064"
       sodipodi:open="true"
       d="m 76.859319,126.77104 a 27.200621,7.2532101 0 0 1 31.823831,-5.48549 27.200621,7.2532101 0 0 1 21.50455,8.3199 27.200621,7.2532101 0 0 1 -30.550541,5.97811 27.200621,7.2532101 0 0 1 -23.313456,-7.96593"
       transform="matrix(0.9955635,-0.09409206,0.11188313,0.99372137,0,0)"
       inkscape:export-xdpi="148.67"
       inkscape:export-ydpi="148.67" />
    <g
       id="g4156"
       transform="translate(0,-6)"
       inkscape:export-xdpi="148.67"
       inkscape:export-ydpi="148.67">
      <rect
         transform="matrix(0.99302145,0.11793384,-0.95285863,0.30341462,0,0)"
         y="162.17744"
         x="269.53528"
         height="77.529495"
         width="78.105331"
         id="rect4172"
         style="opacity:1;fill:#000000;fill-opacity:1;stroke:#000000;stroke-width:0.38908443;stroke-linecap:round;stroke-linejoin:round;stroke-miterlimit:4;stroke-dasharray:none;stroke-dashoffset:0;stroke-opacity:1" />
      <path
         inkscape:connector-curvature="0"
         id="path4198"
         d="m 53.008056,104.56143 0.360762,33.4503"
         style="fill:none;fill-rule:evenodd;stroke:#000000;stroke-width:0.99822354px;stroke-linecap:square;stroke-linejoin:miter;stroke-opacity:1" />
      <path
         transform="matrix(0.1853394,0,0,1.0027314,45.834258,1.515237)"
         inkscape:transform-center-y="-3.4192203"
         inkscape:transform-center-x="-0.0098299132"
         d="m 58.923968,139.97057 -35.14392,3.36554 14.657323,-32.1183 z"
         inkscape:randomized="0"
         inkscape:rounded="0"
         inkscape:flatsided="true"
         sodipodi:arg2="1.4753232"
         sodipodi:arg1="0.42812562"
         sodipodi:r2="6.9118762"
         sodipodi:r1="20.383179"
         sodipodi:cy="131.50816"
         sodipodi:cx="40.380463"
         sodipodi:sides="3"
         id="path4200"
         style="opacity:1;fill:#000000;fill-opacity:1;stroke:#000000;stroke-width:0.1;stroke-linecap:round;stroke-linejoin:round;stroke-miterlimit:4;stroke-dasharray:none;stroke-dashoffset:0;stroke-opacity:1"
         sodipodi:type="star" />
    </g>
    <text
       xml:space="preserve"
       style="font-style:normal;font-variant:normal;font-weight:normal;font-stretch:normal;font-size:13.19356728px;line-height:125%;font-family:'Cambria Math';-inkscape-font-specification:'Cambria Math';letter-spacing:0px;word-spacing:0px;fill:#ffdd55;fill-opacity:1;stroke:none;stroke-width:1px;stroke-linecap:butt;stroke-linejoin:miter;stroke-opacity:1"
       x="92.062012"
       y="129.06622"
       id="text4148"
       sodipodi:linespacing="125%"
       transform="matrix(0.9835007,-0.09778522,0.09605346,1.0072259,0,0)"
       inkscape:export-xdpi="148.67"
       inkscape:export-ydpi="148.67"><tspan
         sodipodi:role="line"
         id="tspan4150"
         x="92.062012"
         y="129.06622"
         style="font-style:normal;font-variant:normal;font-weight:normal;font-stretch:normal;font-size:15px;font-family:'Cambria Math';-inkscape-font-specification:'Cambria Math';fill:#ffdd55">OVM</tspan></text>
  </g>
</svg>
